<svg width="2187" height="570" viewBox="0 0 2187 570" fill="none" xmlns="http://www.w3.org/2000/svg">
<rect y="468" width="2187" height="102" fill="#FEC52E"/>
<path d="M0 7.1134V475.412L2187 478.969V183.763H2178.65L2174.86 94.8453L2037.51 47.4227L2050.5 335.461H2003.5L1987.42 272.68L1906.99 266.752L1897.12 5.92783L1745.35 18.9691L1763.56 238.299L1745.35 244.227V298.763H1705.89V111.443L1582.96 139.897L1596.62 288.093H1531.36V244.227H1526.04L1490.38 139.897L1405.39 201.546L1369.72 154.124L1237.68 187.32L1218.71 288.093V47.4228L1087 60.9609L1079.5 252.961L1032.03 243.041L1035.83 154.124L805.138 0L791.478 282.165L644.262 275.051V243.041L632.879 235.928V190.876L555.477 197.99V68.7629L373.353 33.1959L377.147 160.051L318.716 182.577L314.922 93.6598L179.088 49.7938L191.989 316.546L154.046 303.505V359.227H127.486V197.99L47.0486 189.691L37.1836 0L0 7.1134Z" fill="#FEC52E"/>
<path d="M2110.28 291.261V309.09C2110.28 372.589 2100.76 411.259 2081.71 425.098C2064.78 437.31 2043.69 443.415 2018.45 443.415C2012.27 443.415 2005.84 443.008 1999.16 442.194C1964.97 438.449 1942.99 416.143 1933.22 375.276C1928.17 354.923 1925.65 334.082 1925.65 312.753C1925.65 291.261 1928.17 269.28 1933.22 246.811C1942.99 202.199 1974.17 179.893 2026.76 179.893H2027.74C2080.81 180.218 2108.33 217.341 2110.28 291.261ZM2058.02 298.832C2057.21 253.731 2045.65 231.099 2023.34 230.936H2022.85C2000.71 230.936 1987.76 244.043 1984.02 270.257C1982.06 283.771 1981.09 297.204 1981.09 310.555C1981.09 323.743 1981.98 336.85 1983.77 349.876C1987.52 376.578 1996.72 391.232 2011.37 393.837C2014.3 394.488 2017.15 394.814 2019.92 394.814C2030.5 394.814 2039.21 390.662 2046.05 382.358C2054.03 372.752 2058.02 348.41 2058.02 309.334V298.832Z" fill="#D5242D"/>
<path d="M1836.99 326.917L1835.77 268.79C1833.82 251.043 1827.96 237.366 1818.19 227.76C1812.81 222.712 1807.28 220.189 1801.58 220.189C1796.69 220.189 1791.65 222.143 1786.44 226.05C1775.04 234.354 1767.39 248.764 1763.48 269.279C1761.2 281.653 1760.06 293.132 1760.06 303.715C1760.06 310.879 1760.55 317.555 1761.53 323.742C1764.13 339.372 1768.36 351.502 1774.23 360.132C1780.09 368.598 1787.25 372.832 1795.72 372.832C1804.02 372.832 1811.35 368.761 1817.7 360.62C1824.21 352.316 1830.64 341.082 1836.99 326.917ZM1829.42 193.324L1830.15 70.4766H1888.77L1884.13 425.585H1839.19V391.393C1821.93 415.002 1804.59 427.458 1787.17 428.76C1784.89 428.923 1782.61 429.004 1780.33 429.004C1765.84 429.004 1753.87 425.178 1744.43 417.526C1733.52 408.733 1724.89 395.464 1718.54 377.716C1712.35 359.969 1708.85 340.512 1708.04 319.346C1707.88 316.089 1707.8 312.67 1707.8 309.088C1707.8 290.689 1709.59 270.663 1713.17 249.008C1717.4 223.119 1725.46 203.174 1737.35 189.172C1749.4 175.169 1765.03 167.354 1784.24 165.726C1785.7 165.563 1787.09 165.482 1788.39 165.482C1805.65 165.482 1819.33 174.762 1829.42 193.324Z" fill="#D5242D"/>
<path d="M1533.17 176.473L1535.13 225.807C1550.43 194.871 1569.89 178.589 1593.5 176.961H1598.14C1619.79 176.961 1637.95 186.812 1652.6 206.513C1664.97 223.446 1671.16 276.525 1671.16 365.75C1671.16 388.87 1670.75 414.433 1669.94 442.438L1608.64 445.124C1610.43 397.907 1611.32 358.911 1611.32 328.139C1611.32 276.688 1608.88 248.194 1604 242.659C1598.3 236.146 1591.54 232.889 1583.73 232.889C1580.63 232.889 1577.46 233.378 1574.2 234.355C1562.15 237.937 1551.41 250.555 1541.96 272.21C1540.34 286.701 1539.52 305.181 1539.52 327.65C1539.52 358.586 1541.07 397.093 1544.16 443.17L1482.13 445.368C1483.76 362.168 1484.57 273.187 1484.57 178.426L1533.17 176.473Z" fill="#D5242D"/>
<path d="M1445.49 291.261V309.09C1445.49 372.589 1435.97 411.259 1416.92 425.098C1399.99 437.31 1378.9 443.415 1353.66 443.415C1347.48 443.415 1341.05 443.008 1334.37 442.194C1300.18 438.449 1278.2 416.143 1268.43 375.276C1263.38 354.923 1260.86 334.082 1260.86 312.753C1260.86 291.261 1263.38 269.28 1268.43 246.811C1278.2 202.199 1309.38 179.893 1361.97 179.893H1362.94C1416.02 180.218 1443.54 217.341 1445.49 291.261ZM1393.23 298.832C1392.41 253.731 1380.85 231.099 1358.55 230.936H1358.06C1335.92 230.936 1322.97 244.043 1319.23 270.257C1317.27 283.771 1316.3 297.204 1316.3 310.555C1316.3 323.743 1317.19 336.85 1318.98 349.876C1322.73 376.578 1331.93 391.232 1346.58 393.837C1349.51 394.488 1352.36 394.814 1355.13 394.814C1365.71 394.814 1374.42 390.662 1381.26 382.358C1389.24 372.752 1393.23 348.41 1393.23 309.334V298.832Z" fill="#D5242D"/>
<path d="M931.392 441.949C931.718 414.596 931.881 387.975 931.881 362.086C931.881 260.976 929.357 170.937 924.31 91.9694L1011.01 84.6426L1071.58 366.238C1103.33 240.705 1125.8 147.165 1138.99 85.6195L1222.02 87.8176C1222.02 239.077 1222.76 356.143 1224.22 439.018L1159.01 441.216C1163.25 353.945 1166.1 276.281 1167.56 208.222L1102.11 436.82L1033.24 438.042L985.367 208.222C981.622 356.388 979.75 434.622 979.75 442.926L931.392 441.949Z" fill="#D5242D"/>
<path d="M882.302 195.523L883.279 258.29L782.413 403.851C814.814 400.757 849.169 398.07 885.477 395.791L887.675 457.581C866.672 456.278 840.214 455.627 808.301 455.627C786.158 455.627 761.491 455.953 734.3 456.604L732.102 400.187L824.664 249.742C795.194 251.208 763.282 254.464 728.927 259.511V196.745L882.302 195.523Z" fill="#0E5799"/>
<path d="M640.272 326.917L639.051 268.79C637.097 251.043 631.235 237.366 621.466 227.76C616.093 222.712 610.557 220.189 604.859 220.189C599.974 220.189 594.927 222.143 589.716 226.05C578.319 234.354 570.667 248.764 566.759 269.279C564.479 281.653 563.34 293.132 563.34 303.715C563.34 310.879 563.828 317.555 564.805 323.742C567.41 339.372 571.643 351.502 577.505 360.132C583.366 368.598 590.53 372.832 598.997 372.832C607.301 372.832 614.628 368.761 620.978 360.62C627.49 352.316 633.922 341.082 640.272 326.917ZM632.701 193.324L633.433 70.4766H692.048L687.408 425.585H642.47V391.393C625.211 415.002 607.871 427.458 590.449 428.76C588.17 428.923 585.89 429.004 583.611 429.004C569.12 429.004 557.153 425.178 547.709 417.526C536.8 408.733 528.171 395.464 521.821 377.716C515.634 359.969 512.133 340.512 511.319 319.346C511.156 316.089 511.075 312.67 511.075 309.088C511.075 290.689 512.866 270.663 516.448 249.008C520.681 223.119 528.741 203.174 540.626 189.172C552.675 175.169 568.306 167.354 587.518 165.726C588.984 165.563 590.368 165.482 591.67 165.482C608.929 165.482 622.606 174.762 632.701 193.324Z" fill="#0E5799"/>
<path d="M471.265 196.011C469.963 214.572 469.312 239.24 469.312 270.012C469.312 318.37 470.94 381.788 474.196 460.266L417.535 457.58C419.163 377.636 419.977 291.097 419.977 197.965L471.265 196.011ZM444.889 84.1543C452.541 84.1543 459.217 86.7594 464.915 91.9696C470.777 97.1798 473.708 103.611 473.708 111.264C473.708 118.916 470.777 125.348 464.915 130.558C459.217 135.768 452.541 138.373 444.889 138.373C437.236 138.373 430.561 135.768 424.862 130.558C419.163 125.348 416.314 118.916 416.314 111.264C416.314 103.611 419.163 97.1798 424.862 91.9696C430.561 86.7594 437.236 84.1543 444.889 84.1543Z" fill="#0E5799"/>
<path d="M212.139 96.1223L209.696 259.511L299.084 92.7031L372.109 98.0762C339.219 143.014 304.294 194.058 267.334 251.208L379.435 455.383L298.351 452.208C276.696 391.476 252.192 341.002 224.839 300.786L209.941 323.499L206.521 455.627L152.303 456.848C153.28 416.795 153.768 372.019 153.768 322.522C153.768 255.278 152.873 179.404 151.082 94.9012L212.139 96.1223Z" fill="#0E5799"/>
</svg>
