<svg width="1960" height="390" viewBox="0 0 1960 390" fill="none" xmlns="http://www.w3.org/2000/svg">
<path d="M1959.2 220.784V238.613C1959.2 302.112 1949.68 340.782 1930.63 354.622C1913.69 366.833 1892.61 372.939 1867.37 372.939C1861.19 372.939 1854.75 372.532 1848.08 371.718C1813.89 367.973 1791.91 345.667 1782.14 304.799C1777.09 284.447 1774.57 263.606 1774.57 242.276C1774.57 220.784 1777.09 198.804 1782.14 176.335C1791.91 131.722 1823.09 109.416 1875.68 109.416H1876.65C1929.73 109.742 1957.25 146.864 1959.2 220.784ZM1906.94 228.355C1906.12 183.255 1894.56 160.623 1872.26 160.46H1871.77C1849.63 160.46 1836.68 173.567 1832.94 199.781C1830.98 213.295 1830.01 226.727 1830.01 240.078C1830.01 253.267 1830.9 266.374 1832.69 279.399C1836.44 306.102 1845.64 320.755 1860.29 323.36C1863.22 324.012 1866.07 324.337 1868.84 324.337C1879.42 324.337 1888.13 320.185 1894.97 311.882C1902.95 302.275 1906.94 277.934 1906.94 238.857V228.355Z" fill="#D5242D"/>
<path d="M1685.91 256.44L1684.69 198.314C1682.74 180.566 1676.87 166.89 1667.11 157.283C1661.73 152.236 1656.2 149.712 1650.5 149.712C1645.61 149.712 1640.57 151.666 1635.36 155.574C1623.96 163.877 1616.31 178.287 1612.4 198.802C1610.12 211.176 1608.98 222.655 1608.98 233.238C1608.98 240.402 1609.47 247.078 1610.44 253.265C1613.05 268.896 1617.28 281.026 1623.14 289.655C1629.01 298.122 1636.17 302.355 1644.64 302.355C1652.94 302.355 1660.27 298.285 1666.62 290.144C1673.13 281.84 1679.56 270.605 1685.91 256.44ZM1678.34 122.847L1679.07 0H1737.69L1733.05 355.109H1688.11V320.917C1670.85 344.525 1653.51 356.981 1636.09 358.284C1633.81 358.446 1631.53 358.528 1629.25 358.528C1614.76 358.528 1602.79 354.701 1593.35 347.049C1582.44 338.257 1573.81 324.987 1567.46 307.24C1561.27 289.492 1557.77 270.036 1556.96 248.869C1556.8 245.613 1556.71 242.193 1556.71 238.611C1556.71 220.213 1558.5 200.186 1562.09 178.531C1566.32 152.643 1574.38 132.698 1586.27 118.695C1598.31 104.693 1613.94 96.8774 1633.16 95.2492C1634.62 95.0864 1636.01 95.005 1637.31 95.005C1654.57 95.005 1668.24 104.286 1678.34 122.847Z" fill="#D5242D"/>
<path d="M1382.09 105.996L1384.04 155.33C1399.35 124.395 1418.81 108.113 1442.41 106.485H1447.06C1468.71 106.485 1486.86 116.335 1501.52 136.036C1513.89 152.969 1520.08 206.048 1520.08 295.273C1520.08 318.394 1519.67 343.956 1518.86 371.961L1457.56 374.648C1459.35 327.43 1460.24 288.435 1460.24 257.662C1460.24 206.211 1457.8 177.718 1452.92 172.182C1447.22 165.669 1440.46 162.413 1432.65 162.413C1429.55 162.413 1426.38 162.901 1423.12 163.878C1411.07 167.46 1400.33 180.079 1390.88 201.734C1389.25 216.225 1388.44 234.705 1388.44 257.174C1388.44 288.109 1389.99 326.616 1393.08 372.694L1331.05 374.892C1332.67 291.691 1333.49 202.711 1333.49 107.95L1382.09 105.996Z" fill="#D5242D"/>
<path d="M1294.41 220.784V238.613C1294.41 302.112 1284.89 340.782 1265.84 354.622C1248.9 366.833 1227.82 372.939 1202.58 372.939C1196.39 372.939 1189.96 372.532 1183.29 371.718C1149.1 367.973 1127.12 345.667 1117.35 304.799C1112.3 284.447 1109.78 263.606 1109.78 242.276C1109.78 220.784 1112.3 198.804 1117.35 176.335C1127.12 131.722 1158.3 109.416 1210.89 109.416H1211.86C1264.94 109.742 1292.46 146.864 1294.41 220.784ZM1242.15 228.355C1241.33 183.255 1229.77 160.623 1207.47 160.46H1206.98C1184.83 160.46 1171.89 173.567 1168.15 199.781C1166.19 213.295 1165.22 226.727 1165.22 240.078C1165.22 253.267 1166.11 266.374 1167.9 279.399C1171.65 306.102 1180.85 320.755 1195.5 323.36C1198.43 324.012 1201.28 324.337 1204.05 324.337C1214.63 324.337 1223.34 320.185 1230.18 311.882C1238.16 302.275 1242.15 277.934 1242.15 238.857V228.355Z" fill="#D5242D"/>
<path d="M780.311 371.473C780.636 344.119 780.799 317.498 780.799 291.61C780.799 190.499 778.275 100.46 773.228 21.4929L859.929 14.166L920.498 295.762C952.248 170.228 974.717 76.6886 987.905 15.1429L1070.94 17.341C1070.94 168.6 1071.68 285.667 1073.14 368.542L1007.93 370.74C1012.17 283.469 1015.01 205.804 1016.48 137.746L951.026 366.344L882.154 367.565L834.285 137.746C830.54 285.911 828.668 364.146 828.668 372.45L780.311 371.473Z" fill="#D5242D"/>
<path d="M731.221 125.047L732.198 187.814L631.331 333.374C663.732 330.28 698.087 327.594 734.396 325.314L736.594 387.104C715.59 385.802 689.132 385.15 657.22 385.15C635.076 385.15 610.409 385.476 583.218 386.127L581.02 329.711L673.583 179.266C644.113 180.731 612.2 183.987 577.845 189.035V126.268L731.221 125.047Z" fill="#0E5799"/>
<path d="M489.19 256.44L487.969 198.314C486.015 180.566 480.154 166.89 470.385 157.283C465.011 152.236 459.476 149.712 453.777 149.712C448.892 149.712 443.845 151.666 438.635 155.574C427.237 163.877 419.585 178.287 415.677 198.802C413.398 211.176 412.258 222.655 412.258 233.238C412.258 240.402 412.747 247.078 413.723 253.265C416.329 268.896 420.562 281.026 426.423 289.655C432.285 298.122 439.449 302.355 447.915 302.355C456.219 302.355 463.546 298.285 469.896 290.144C476.409 281.84 482.84 270.605 489.19 256.44ZM481.619 122.847L482.352 0H540.967L536.326 355.109H491.388V320.917C474.129 344.525 456.789 356.981 439.367 358.284C437.088 358.446 434.809 358.528 432.529 358.528C418.038 358.528 406.071 354.701 396.627 347.049C385.719 338.257 377.089 324.987 370.739 307.24C364.552 289.492 361.051 270.036 360.237 248.869C360.075 245.613 359.993 242.193 359.993 238.611C359.993 220.213 361.784 200.186 365.366 178.531C369.599 152.643 377.659 132.698 389.545 118.695C401.593 104.693 417.224 96.8774 436.437 95.2492C437.902 95.0864 439.286 95.005 440.589 95.005C457.847 95.005 471.524 104.286 481.619 122.847Z" fill="#0E5799"/>
<path d="M320.184 125.534C318.881 144.096 318.23 168.763 318.23 199.536C318.23 247.893 319.858 311.311 323.115 389.79L266.454 387.103C268.082 307.159 268.896 220.621 268.896 127.488L320.184 125.534ZM293.807 13.6777C301.46 13.6777 308.135 16.2828 313.834 21.4931C319.695 26.7033 322.626 33.1346 322.626 40.7871C322.626 48.4396 319.695 54.871 313.834 60.0812C308.135 65.2914 301.46 67.8965 293.807 67.8965C286.155 67.8965 279.479 65.2914 273.78 60.0812C268.082 54.871 265.232 48.4396 265.232 40.7871C265.232 33.1346 268.082 26.7033 273.78 21.4931C279.479 16.2828 286.155 13.6777 293.807 13.6777Z" fill="#0E5799"/>
<path d="M61.0572 25.6458L58.6149 189.035L148.003 22.2266L221.027 27.5996C188.137 72.5377 153.213 123.581 116.253 180.731L228.354 384.906L147.27 381.731C125.615 321 101.111 270.526 73.7571 230.309L58.8591 253.023L55.4399 385.15L1.22114 386.372C2.19806 346.318 2.68652 301.543 2.68652 252.046C2.68652 184.801 1.79101 108.928 0 24.4246L61.0572 25.6458Z" fill="#0E5799"/>
</svg>
