<svg width="700" height="341" viewBox="0 0 700 341" fill="none" xmlns="http://www.w3.org/2000/svg">
<g clip-path="url(#clip0_232_188)">
<path d="M697.132 334.819C697.115 336.38 696.487 337.871 695.384 338.974C694.281 340.078 692.789 340.705 691.229 340.723H290.12C288.56 340.705 287.069 340.078 285.965 338.974C284.862 337.871 284.234 336.38 284.217 334.819V253.349C284.234 251.789 284.862 250.298 285.965 249.194C287.069 248.091 288.56 247.463 290.12 247.446H691.397C692.958 247.463 694.449 248.091 695.553 249.194C696.656 250.298 697.284 251.789 697.301 253.349L697.132 334.819Z" fill="#21B799"/>
<path d="M328.747 296.361V312.891H323.35V273.253H334.482C336.707 273.156 338.932 273.441 341.06 274.096C342.723 274.48 344.278 275.229 345.615 276.289C346.746 277.273 347.665 278.479 348.313 279.831C348.868 281.286 349.153 282.829 349.157 284.385C349.194 285.711 348.965 287.03 348.482 288.265C348.069 289.439 347.439 290.526 346.627 291.47C345.729 292.442 344.709 293.292 343.591 294C342.325 294.707 340.96 295.218 339.542 295.518C340.224 295.946 340.801 296.523 341.229 297.205L352.699 312.891H347.976C347.536 312.927 347.094 312.834 346.706 312.625C346.317 312.415 345.996 312.098 345.783 311.711L335.494 297.542C335.248 297.125 334.9 296.776 334.482 296.53C333.955 296.284 333.377 296.168 332.795 296.193L328.747 296.361ZM328.747 292.482H334.313C335.68 292.501 337.042 292.331 338.362 291.976C339.465 291.677 340.497 291.161 341.398 290.458C342.198 289.764 342.833 288.9 343.253 287.928C343.655 286.904 343.883 285.821 343.928 284.723C343.984 283.701 343.799 282.681 343.389 281.743C342.979 280.806 342.355 279.978 341.566 279.325C339.524 277.971 337.096 277.32 334.651 277.47H328.747V292.482Z" fill="white"/>
<path d="M368.722 284.386C370.332 284.405 371.928 284.69 373.445 285.229C374.832 285.752 376.096 286.556 377.156 287.591C378.23 288.686 379.038 290.013 379.518 291.47C380.084 293.213 380.368 295.035 380.361 296.868C380.346 297.377 380.29 297.885 380.192 298.386C379.911 298.624 379.548 298.745 379.18 298.723H360.626C360.647 300.264 360.874 301.796 361.301 303.277C361.674 304.47 362.308 305.564 363.156 306.482C363.938 307.301 364.85 307.985 365.855 308.506C366.967 309.004 368.18 309.235 369.397 309.181C370.487 309.205 371.573 309.034 372.602 308.675C373.371 308.346 374.16 308.064 374.963 307.832C375.547 307.532 376.111 307.194 376.65 306.819C376.986 306.539 377.396 306.363 377.831 306.313C378.025 306.326 378.214 306.377 378.388 306.464C378.562 306.551 378.717 306.672 378.843 306.819L380.192 308.675C379.541 309.382 378.804 310.005 378 310.53C377.153 311.08 376.248 311.532 375.301 311.88C374.312 312.239 373.297 312.521 372.265 312.723C371.259 312.863 370.243 312.92 369.228 312.892C367.381 312.899 365.55 312.555 363.831 311.88C362.243 311.225 360.807 310.248 359.614 309.012C358.329 307.692 357.4 306.067 356.915 304.289C356.211 302.227 355.869 300.059 355.903 297.88C355.91 296.048 356.194 294.228 356.747 292.482C357.348 290.893 358.202 289.412 359.277 288.097C360.439 286.901 361.811 285.929 363.325 285.229C365.071 284.677 366.891 284.392 368.722 284.386ZM368.891 288.097C367.875 288.04 366.857 288.19 365.9 288.538C364.944 288.886 364.067 289.424 363.325 290.121C361.86 291.693 360.969 293.714 360.795 295.856H375.975C375.986 294.767 375.815 293.684 375.469 292.651C375.159 291.74 374.703 290.886 374.12 290.121C373.503 289.467 372.756 288.95 371.927 288.603C370.956 288.243 369.926 288.071 368.891 288.097Z" fill="white"/>
<path d="M407.18 312.892H404.988C404.586 312.932 404.181 312.874 403.807 312.723C403.631 312.624 403.489 312.475 403.399 312.295C403.309 312.114 403.275 311.911 403.301 311.711L402.795 309.181C402.12 309.856 401.277 310.362 400.602 311.037C399.91 311.547 399.177 311.998 398.409 312.386C397.603 312.767 396.753 313.051 395.879 313.229C394.937 313.435 393.976 313.548 393.012 313.567C391.979 313.563 390.954 313.393 389.976 313.061C389.065 312.75 388.211 312.294 387.445 311.711C386.751 311.028 386.18 310.229 385.759 309.35C385.34 308.273 385.112 307.131 385.084 305.976C385.104 304.856 385.393 303.757 385.927 302.772C386.669 301.669 387.649 300.747 388.795 300.073C390.474 299.114 392.297 298.43 394.192 298.049C396.859 297.529 399.573 297.303 402.289 297.374V295.181C402.405 293.445 401.93 291.721 400.939 290.29C400.434 289.723 399.808 289.277 399.108 288.985C398.407 288.693 397.649 288.562 396.891 288.603C395.856 288.578 394.826 288.749 393.855 289.109C393.012 289.446 392.337 289.784 391.662 290.121C391.107 290.377 390.595 290.719 390.144 291.133C389.762 291.446 389.288 291.623 388.795 291.639C388.482 291.633 388.182 291.513 387.951 291.302C387.783 291.133 387.445 290.964 387.277 290.627L386.433 289.109C389.344 286.204 393.285 284.567 397.397 284.555C398.845 284.557 400.277 284.843 401.614 285.398C402.789 285.872 403.831 286.624 404.65 287.591C405.559 288.529 406.2 289.694 406.506 290.964C407.002 292.371 407.231 293.859 407.18 295.35V312.892ZM394.53 309.856C395.328 309.839 396.12 309.725 396.891 309.519C397.589 309.37 398.268 309.144 398.915 308.844C399.571 308.511 400.192 308.116 400.771 307.663C401.277 307.157 401.951 306.651 402.458 306.145V300.241C400.534 300.211 398.612 300.381 396.723 300.747C395.388 300.991 394.087 301.387 392.843 301.928C391.987 302.306 391.235 302.885 390.65 303.615C390.176 304.245 389.937 305.02 389.976 305.808C389.99 306.44 390.104 307.066 390.313 307.663C390.493 308.212 390.849 308.686 391.325 309.013C391.52 309.22 391.755 309.387 392.016 309.503C392.277 309.619 392.558 309.682 392.843 309.687C393.18 309.687 393.855 309.856 394.53 309.856Z" fill="white"/>
<path d="M434.337 312.891C434.028 312.914 433.721 312.825 433.473 312.639C433.225 312.452 433.052 312.183 432.988 311.879L432.482 308.506C431.387 309.949 430.01 311.154 428.434 312.048C426.831 312.927 425.033 313.391 423.205 313.397C421.684 313.404 420.183 313.057 418.819 312.385C417.518 311.732 416.368 310.813 415.446 309.687C414.451 308.31 413.708 306.768 413.253 305.132C412.76 303.147 412.533 301.105 412.578 299.06C412.586 297.118 412.87 295.187 413.422 293.325C413.861 291.65 414.668 290.095 415.783 288.771C416.795 287.443 418.131 286.398 419.663 285.735C421.247 284.988 422.972 284.586 424.723 284.554C426.226 284.54 427.717 284.827 429.108 285.397C430.343 285.93 431.439 286.737 432.313 287.759V272.241H437.205V312.891H434.337ZM424.892 309.181C426.388 309.255 427.868 308.841 429.108 308C430.431 307.162 431.577 306.073 432.482 304.795V291.301C431.725 290.192 430.673 289.315 429.446 288.771C428.329 288.289 427.12 288.059 425.904 288.096C424.736 288.052 423.574 288.29 422.517 288.789C421.461 289.288 420.539 290.034 419.831 290.964C418.352 293.333 417.645 296.103 417.807 298.891C417.781 300.48 417.951 302.067 418.313 303.614C418.597 304.745 419.052 305.826 419.663 306.819C420.221 307.617 420.976 308.256 421.855 308.674C422.826 309.034 423.857 309.206 424.892 309.181Z" fill="white"/>
<path d="M453.735 321.156C453.608 321.504 453.371 321.8 453.06 322C452.712 322.235 452.299 322.353 451.879 322.337H448.168L453.229 311.204L441.759 284.891H445.976C446.339 284.899 446.692 285.017 446.988 285.228C447.156 285.397 447.325 285.734 447.494 285.903L454.915 303.445C455.084 303.783 455.253 304.289 455.421 304.626C455.59 304.963 455.59 305.469 455.759 305.807C455.927 305.431 456.041 305.034 456.096 304.626C456.265 304.289 456.434 303.783 456.602 303.445L463.855 285.903C463.981 285.649 464.153 285.421 464.361 285.228C464.699 285.06 464.867 284.891 465.205 284.891H469.084L453.735 321.156Z" fill="white"/>
<path d="M491.18 298.049V312.892H485.783V273.253H497.421C499.642 273.24 501.854 273.524 504 274.097C505.714 274.524 507.285 275.397 508.554 276.627C509.783 277.656 510.715 278.996 511.253 280.506C512.435 283.787 512.375 287.387 511.084 290.627C510.483 292.148 509.495 293.486 508.216 294.506C506.923 295.703 505.361 296.571 503.662 297.036C501.592 297.691 499.422 297.976 497.253 297.88L491.18 298.049ZM491.18 293.832H497.59C498.971 293.883 500.348 293.654 501.638 293.157C502.72 292.843 503.706 292.263 504.506 291.47C505.306 290.777 505.94 289.912 506.361 288.94C506.763 287.858 506.991 286.72 507.036 285.567C507.091 284.47 506.909 283.375 506.501 282.356C506.094 281.337 505.47 280.418 504.674 279.663C502.661 278.09 500.14 277.31 497.59 277.47H491.18V293.832Z" fill="white"/>
<path d="M537.397 312.892H535.204C534.803 312.932 534.398 312.874 534.024 312.723C533.848 312.624 533.706 312.475 533.616 312.295C533.526 312.114 533.492 311.911 533.518 311.711L533.012 309.181C532.337 309.856 531.494 310.362 530.819 311.037C530.127 311.547 529.393 311.998 528.626 312.386C527.83 312.793 526.977 313.077 526.096 313.229C525.153 313.435 524.193 313.548 523.229 313.567C522.196 313.563 521.17 313.393 520.192 313.061C519.282 312.75 518.427 312.294 517.662 311.711C516.968 311.028 516.397 310.229 515.975 309.35C515.557 308.273 515.329 307.131 515.301 305.976C515.321 304.856 515.61 303.757 516.144 302.772C516.886 301.669 517.866 300.747 519.012 300.073C520.691 299.114 522.513 298.43 524.409 298.049C527.075 297.529 529.79 297.303 532.506 297.374V295.181C532.622 293.445 532.146 291.721 531.156 290.29C530.651 289.723 530.025 289.277 529.324 288.985C528.624 288.693 527.866 288.562 527.108 288.603C526.073 288.578 525.043 288.749 524.072 289.109C523.229 289.446 522.554 289.784 521.879 290.121C521.324 290.377 520.811 290.719 520.361 291.133C519.979 291.446 519.505 291.623 519.012 291.639C518.699 291.633 518.399 291.513 518.168 291.302C518 291.133 517.662 290.964 517.494 290.627L516.65 289.109C519.561 286.204 523.502 284.567 527.614 284.555C529.061 284.557 530.494 284.843 531.831 285.398C533.006 285.872 534.048 286.624 534.867 287.591C535.776 288.529 536.417 289.694 536.722 290.964C537.137 292.391 537.364 293.865 537.397 295.35V312.892ZM524.747 309.856C525.544 309.839 526.337 309.725 527.108 309.519C527.806 309.37 528.485 309.144 529.132 308.844C529.787 308.511 530.409 308.116 530.988 307.663C531.494 307.157 532.168 306.651 532.674 306.145V300.241C530.75 300.211 528.828 300.381 526.939 300.747C525.605 300.991 524.303 301.387 523.06 301.928C522.204 302.306 521.452 302.885 520.867 303.615C520.393 304.245 520.154 305.02 520.192 305.808C520.207 306.44 520.321 307.066 520.53 307.663C520.71 308.212 521.065 308.686 521.542 309.013C521.957 309.403 522.492 309.641 523.06 309.687C523.397 309.687 524.072 309.856 524.747 309.856Z" fill="white"/>
<path d="M544.819 312.892V284.892H547.687C548.103 284.902 548.509 285.018 548.868 285.229C549.106 285.511 549.227 285.873 549.205 286.241L549.542 290.627C550.355 288.855 551.567 287.296 553.084 286.072C554.489 284.995 556.206 284.403 557.976 284.386C558.665 284.387 559.348 284.501 560 284.723C560.598 284.844 561.17 285.073 561.687 285.398L561.012 289.109C560.843 289.615 560.675 289.783 560.169 289.783C559.761 289.728 559.363 289.615 558.988 289.446C558.278 289.225 557.539 289.112 556.795 289.109C555.244 289.039 553.729 289.584 552.578 290.627C551.23 291.79 550.236 293.31 549.711 295.012V312.892H544.819Z" fill="white"/>
<path d="M575.687 313.228C574.762 313.275 573.837 313.135 572.968 312.816C572.098 312.497 571.302 312.006 570.627 311.373C569.978 310.639 569.48 309.784 569.162 308.858C568.844 307.932 568.711 306.952 568.771 305.975V288.77H565.398C565.267 288.768 565.139 288.736 565.022 288.678C564.906 288.619 564.803 288.536 564.723 288.433C564.511 288.202 564.391 287.902 564.386 287.589V285.565L568.94 285.059L570.121 276.457C570.123 276.326 570.155 276.198 570.213 276.081C570.271 275.965 570.355 275.862 570.458 275.782C570.689 275.571 570.989 275.451 571.301 275.445H573.832V285.059H581.928V288.601H573.832V305.469C573.799 306.438 574.096 307.389 574.675 308.168C574.948 308.471 575.29 308.705 575.67 308.851C576.051 308.998 576.462 309.053 576.868 309.011C577.324 309.047 577.783 308.99 578.217 308.842L579.229 308.336C579.483 308.21 579.712 308.039 579.904 307.83C579.97 307.767 580.05 307.718 580.138 307.689C580.225 307.66 580.318 307.651 580.41 307.662C580.747 307.662 580.916 307.83 581.085 308.168L582.603 310.529C581.721 311.34 580.69 311.97 579.566 312.385C578.359 312.97 577.029 313.26 575.687 313.228Z" fill="white"/>
<path d="M587.831 312.891V284.891H590.699C591.008 284.868 591.315 284.958 591.563 285.144C591.811 285.33 591.983 285.6 592.048 285.903L592.385 288.939C593.536 287.642 594.906 286.557 596.433 285.734C598.043 284.891 599.846 284.484 601.662 284.554C603.044 284.502 604.421 284.732 605.711 285.228C606.861 285.662 607.858 286.424 608.578 287.421C609.392 288.426 610.021 289.569 610.433 290.795C610.848 292.221 611.075 293.695 611.108 295.18V313.06H606.217V295.18C606.338 293.417 605.797 291.673 604.699 290.289C604.148 289.687 603.466 289.221 602.704 288.929C601.943 288.636 601.125 288.524 600.313 288.602C598.898 288.576 597.501 288.925 596.265 289.614C594.965 290.412 593.774 291.376 592.723 292.481V313.06L587.831 312.891Z" fill="white"/>
<path d="M629.494 284.386C631.104 284.405 632.7 284.69 634.217 285.229C635.604 285.752 636.867 286.556 637.928 287.591C639.001 288.686 639.809 290.013 640.289 291.47C640.855 293.213 641.14 295.035 641.133 296.868C641.133 297.711 641.133 298.217 640.964 298.386C640.682 298.624 640.32 298.745 639.952 298.723H621.398C621.419 300.264 621.646 301.796 622.072 303.277C622.446 304.47 623.079 305.564 623.928 306.482C624.71 307.301 625.622 307.985 626.626 308.506C627.739 309.004 628.952 309.235 630.169 309.181C631.259 309.205 632.344 309.034 633.373 308.675C634.143 308.346 634.931 308.064 635.735 307.832C636.319 307.532 636.882 307.194 637.422 306.819C637.757 306.539 638.168 306.363 638.602 306.313C638.796 306.326 638.986 306.377 639.16 306.464C639.334 306.551 639.488 306.672 639.614 306.819L640.964 308.675C640.312 309.382 639.576 310.005 638.771 310.53C637.925 311.08 637.02 311.532 636.072 311.88C635.084 312.239 634.068 312.521 633.036 312.723C632.03 312.863 631.015 312.92 630 312.892C628.153 312.899 626.321 312.555 624.602 311.88C623.014 311.225 621.579 310.248 620.386 309.012C619.101 307.692 618.172 306.067 617.687 304.289C616.983 302.227 616.641 300.059 616.675 297.88C616.681 296.048 616.965 294.228 617.518 292.482C618.119 290.893 618.974 289.412 620.048 288.097C621.211 286.901 622.583 285.929 624.096 285.229C625.843 284.677 627.662 284.392 629.494 284.386ZM629.663 288.097C628.646 288.04 627.629 288.19 626.672 288.538C625.715 288.886 624.839 289.424 624.096 290.121C622.632 291.693 621.74 293.714 621.566 295.856H636.747C636.757 294.767 636.586 293.684 636.241 292.651C635.93 291.74 635.475 290.886 634.892 290.121C634.275 289.467 633.528 288.95 632.699 288.603C631.728 288.243 630.698 288.071 629.663 288.097Z" fill="white"/>
<path d="M647.373 312.892V284.892H650.241C650.656 284.902 651.063 285.018 651.421 285.229C651.66 285.511 651.781 285.873 651.759 286.241L652.096 290.627C652.909 288.855 654.121 287.296 655.638 286.072C657.043 284.995 658.759 284.403 660.53 284.386C661.218 284.387 661.902 284.501 662.554 284.723C663.152 284.844 663.724 285.073 664.241 285.398L663.566 289.109C663.397 289.615 663.228 289.783 662.722 289.783C662.315 289.728 661.917 289.615 661.542 289.446C660.832 289.225 660.093 289.112 659.349 289.109C657.798 289.039 656.283 289.584 655.132 290.627C653.783 291.79 652.789 293.31 652.265 295.012V312.892H647.373Z" fill="white"/>
<path d="M615.663 50.771C598.982 50.771 582.676 55.7173 568.807 64.9844C554.938 74.2515 544.128 87.4232 537.745 102.834C531.362 118.244 529.692 135.202 532.946 151.562C536.2 167.922 544.232 182.949 556.027 194.744C567.822 206.539 582.849 214.571 599.209 217.825C615.569 221.079 632.526 219.409 647.937 213.026C663.348 206.643 676.519 195.833 685.786 181.964C695.054 168.094 700 151.789 700 135.108C700 112.741 691.114 91.2891 675.298 75.4728C659.482 59.6565 638.03 50.771 615.663 50.771ZM615.663 185.711C605.654 185.711 595.871 182.743 587.549 177.183C579.228 171.622 572.742 163.719 568.912 154.473C565.082 145.227 564.08 135.052 566.032 125.236C567.985 115.42 572.804 106.404 579.881 99.327C586.958 92.2502 595.975 87.4308 605.791 85.4782C615.606 83.5257 625.781 84.5278 635.027 88.3578C644.274 92.1878 652.177 98.6736 657.737 106.995C663.297 115.317 666.265 125.1 666.265 135.108C666.265 148.529 660.934 161.4 651.444 170.89C641.954 180.379 629.083 185.711 615.663 185.711Z" fill="#8F8F8F"/>
<path d="M438.554 50.771C421.874 50.771 405.568 55.7173 391.699 64.9844C377.83 74.2515 367.02 87.4232 360.637 102.834C354.253 118.244 352.583 135.202 355.837 151.562C359.092 167.922 367.124 182.949 378.919 194.744C390.713 206.539 405.741 214.571 422.101 217.825C438.461 221.079 455.418 219.409 470.829 213.026C486.239 206.643 499.411 195.833 508.678 181.964C517.945 168.094 522.891 151.789 522.891 135.108C522.891 124.033 520.71 113.066 516.472 102.834C512.233 92.6016 506.021 83.3043 498.19 75.4728C490.358 67.6414 481.061 61.4291 470.829 57.1908C460.596 52.9524 449.63 50.771 438.554 50.771ZM438.554 185.711C428.546 185.711 418.762 182.743 410.441 177.183C402.119 171.622 395.634 163.719 391.804 154.473C387.974 145.227 386.972 135.052 388.924 125.236C390.877 115.42 395.696 106.404 402.773 99.327C409.85 92.2502 418.866 87.4308 428.682 85.4782C438.498 83.5257 448.672 84.5278 457.919 88.3578C467.165 92.1878 475.068 98.6736 480.629 106.995C486.189 115.317 489.157 125.1 489.157 135.108C489.157 148.529 483.825 161.4 474.335 170.89C464.846 180.379 451.975 185.711 438.554 185.711Z" fill="#8F8F8F"/>
<path d="M84.3374 50.771C67.657 50.771 51.3513 55.7173 37.4821 64.9844C23.6129 74.2515 12.8031 87.4232 6.41983 102.834C0.0365371 118.244 -1.63362 135.202 1.62056 151.562C4.87473 167.922 12.9071 182.949 24.7019 194.744C36.4967 206.539 51.5241 214.571 67.884 217.825C84.2438 221.079 101.201 219.409 116.612 213.026C132.022 206.643 145.194 195.833 154.461 181.964C163.728 168.094 168.675 151.789 168.675 135.108C168.675 112.741 159.789 91.2891 143.973 75.4728C128.157 59.6565 106.705 50.771 84.3374 50.771ZM84.3374 185.711C74.3292 185.711 64.5457 182.743 56.2242 177.183C47.9027 171.622 41.4168 163.719 37.5868 154.473C33.7569 145.227 32.7548 135.052 34.7073 125.236C36.6598 115.42 41.4792 106.404 48.5561 99.327C55.6329 92.2502 64.6494 87.4308 74.4653 85.4782C84.2812 83.5257 94.4557 84.5278 103.702 88.3578C112.948 92.1878 120.851 98.6736 126.412 106.995C131.972 115.317 134.94 125.1 134.94 135.108C134.94 148.529 129.608 161.4 120.119 170.89C110.629 180.379 97.7579 185.711 84.3374 185.711Z" fill="#714B67"/>
<path d="M328.916 0C324.442 0 320.152 1.7771 316.988 4.94037C313.825 8.10363 312.048 12.3939 312.048 16.8675V67.4699C296.855 56.0751 278.261 50.1417 259.275 50.6305C240.29 51.1192 222.026 58.0014 207.439 70.1629C192.852 82.3243 182.797 99.053 178.902 117.641C175.006 136.228 177.498 155.587 185.975 172.581C194.451 189.576 208.415 203.213 225.606 211.283C242.798 219.354 262.21 221.386 280.7 217.05C299.189 212.714 315.675 202.265 327.487 187.394C339.298 172.522 345.745 154.1 345.783 135.108V16.8675C345.783 12.3939 344.006 8.10363 340.843 4.94037C337.679 1.7771 333.389 0 328.916 0ZM261.446 185.542C251.437 185.542 241.654 182.574 233.332 177.014C225.011 171.454 218.525 163.551 214.695 154.304C210.865 145.058 209.863 134.884 211.816 125.068C213.768 115.252 218.587 106.235 225.664 99.1584C232.741 92.0816 241.758 87.2622 251.574 85.3097C261.39 83.3571 271.564 84.3593 280.81 88.1892C290.057 92.0192 297.96 98.505 303.52 106.827C309.08 115.148 312.048 124.932 312.048 134.94C312.048 148.36 306.717 161.231 297.227 170.721C287.737 180.211 274.866 185.542 261.446 185.542Z" fill="#8F8F8F"/>
</g>
<defs>
<clipPath id="clip0_232_188">
<rect width="700" height="341" fill="white"/>
</clipPath>
</defs>
</svg>
